<svg width="96" height="69" viewBox="0 0 96 69" fill="none" xmlns="http://www.w3.org/2000/svg">
<g filter="url(#filter0_d_34_209)">
<rect x="7.80011" y="6.5144" width="79.0351" height="52" rx="26" transform="rotate(-1.2454 7.80011 6.5144)" fill="#29292E"/>
<rect x="8.31086" y="7.00342" width="78.0351" height="51" rx="25.5" transform="rotate(-1.2454 8.31086 7.00342)" stroke="#8234E9"/>
</g>
<path d="M28.6467 23.4553C29.0416 23.5201 29.3792 23.7128 29.6596 24.0334C29.9399 24.3541 30.0848 24.731 30.0942 25.1643C30.1019 25.5175 30.0189 25.8394 29.8452 26.1299C29.678 26.4136 29.4262 26.6425 29.0899 26.8165C28.7535 26.9838 28.3486 27.0726 27.8754 27.0829L25.456 27.1355L25.3041 20.1472L27.6535 20.0961C28.36 20.0807 28.9001 20.2324 29.2738 20.551C29.6541 20.8695 29.8499 21.2886 29.8612 21.8085C29.8707 22.2418 29.7617 22.5975 29.5344 22.8759C29.3069 23.1476 29.011 23.3407 28.6467 23.4553ZM26.0711 23.2212L27.7007 23.1858C28.1739 23.1755 28.5347 23.0577 28.7832 22.8322C29.0383 22.5999 29.1615 22.2872 29.1529 21.8939C29.1445 21.5074 29.008 21.2069 28.7432 20.9926C28.4852 20.7782 28.1096 20.6763 27.6163 20.6871L26.0167 20.7218L26.0711 23.2212ZM27.8126 26.4942C28.3191 26.4831 28.7098 26.3546 28.9845 26.1086C29.2659 25.8624 29.402 25.5294 29.3929 25.1095C29.3837 24.6896 29.2265 24.3596 28.9213 24.1195C28.6225 23.8726 28.2232 23.7546 27.7233 23.7655L26.0837 23.8011L26.143 26.5305L27.8126 26.4942ZM31.0419 24.2734C31.0297 23.7136 31.129 23.2213 31.3399 22.7966C31.5572 22.3651 31.86 22.0318 32.2483 21.7966C32.6432 21.5547 33.0905 21.4282 33.5904 21.4174C34.1103 21.4061 34.5595 21.5163 34.9379 21.7482C35.3231 21.9799 35.603 22.2805 35.7777 22.6501L35.7516 21.4504L36.4515 21.4352L36.5702 26.8939L35.8703 26.9091L35.844 25.6994C35.6788 26.0764 35.409 26.3924 35.0344 26.6472C34.6664 26.8953 34.2224 27.025 33.7026 27.0363C33.2094 27.047 32.7603 26.9401 32.3553 26.7155C31.957 26.4907 31.6399 26.1676 31.404 25.7459C31.1748 25.3241 31.0541 24.8333 31.0419 24.2734ZM35.811 24.1798C35.8014 23.7399 35.703 23.3553 35.5158 23.0259C35.3286 22.6966 35.0764 22.4453 34.7593 22.2722C34.4488 22.0989 34.1069 22.0163 33.7336 22.0244C33.3471 22.0328 33.0024 22.127 32.6995 22.307C32.3967 22.4869 32.1589 22.7455 31.9862 23.0826C31.82 23.413 31.7419 23.8048 31.7517 24.258C31.7614 24.7046 31.8566 25.0959 32.0373 25.4321C32.2245 25.7614 32.4734 26.0127 32.7839 26.186C33.0942 26.3527 33.4427 26.4318 33.8293 26.4234C34.2025 26.4153 34.5405 26.3179 34.8432 26.1313C35.1525 25.9445 35.3935 25.6825 35.5663 25.3454C35.739 25.0082 35.8205 24.6197 35.811 24.1798ZM38.3767 20.3631C38.2367 20.3661 38.1157 20.3188 38.0135 20.221C37.9114 20.1232 37.8587 20.0009 37.8555 19.8543C37.8523 19.7077 37.8997 19.5866 37.9976 19.4911C38.0954 19.389 38.2143 19.3364 38.3543 19.3333C38.4943 19.3303 38.6153 19.3777 38.7175 19.4755C38.8195 19.5666 38.8721 19.6855 38.8753 19.8321C38.8784 19.9788 38.8311 20.1032 38.7333 20.2053C38.6355 20.3075 38.5167 20.3601 38.3767 20.3631ZM38.749 21.3853L38.8677 26.844L38.1678 26.8592L38.0492 21.4005L38.749 21.3853ZM43.3118 26.7474L41.8543 24.5785L40.5424 26.8076L39.8026 26.8236L41.5028 24.056L39.7039 21.3645L40.4937 21.3473L41.9306 23.4866L43.2331 21.2878L43.9629 21.2719L42.282 24.0091L44.1016 26.7302L43.3118 26.7474ZM44.6715 23.9771C44.6593 23.4173 44.7586 22.925 44.9695 22.5003C45.1868 22.0688 45.4896 21.7355 45.8779 21.5003C46.2728 21.2584 46.7201 21.1319 47.22 21.1211C47.7399 21.1098 48.1891 21.22 48.5675 21.4519C48.9526 21.6836 49.2326 21.9842 49.4073 22.3538L49.3812 21.1541L50.0811 21.1389L50.1997 26.5976L49.4999 26.6128L49.4736 25.4031C49.3084 25.7801 49.0386 26.0961 48.664 26.3509C48.296 26.599 47.852 26.7287 47.3322 26.74C46.8389 26.7507 46.3898 26.6438 45.9849 26.4192C45.5866 26.1944 45.2695 25.8713 45.0336 25.4496C44.8044 25.0278 44.6837 24.537 44.6715 23.9771ZM49.4406 23.8835C49.431 23.4436 49.3326 23.059 49.1454 22.7296C48.9582 22.4003 48.706 22.149 48.3889 21.9759C48.0784 21.8026 47.7365 21.72 47.3632 21.7281C46.9767 21.7365 46.632 21.8307 46.3291 22.0107C46.0263 22.1906 45.7885 22.4492 45.6158 22.7863C45.4496 23.1167 45.3715 23.5085 45.3813 23.9617C45.391 24.4083 45.4862 24.7996 45.6669 25.1358C45.8541 25.4651 46.103 25.7164 46.4135 25.8897C46.7238 26.0564 47.0723 26.1355 47.4589 26.1271C47.8321 26.119 48.1701 26.0216 48.4728 25.835C48.7821 25.6482 49.0231 25.3862 49.1959 25.0491C49.3686 24.7119 49.4501 24.3234 49.4406 23.8835ZM52.3997 22.0587C52.5456 21.7155 52.7731 21.4471 53.0823 21.2537C53.3982 21.0601 53.7861 20.9583 54.246 20.9483L54.2618 21.6782L54.0719 21.6823C53.5653 21.6933 53.1617 21.8388 52.8611 22.1187C52.5604 22.3986 52.417 22.8585 52.431 23.4984L52.4973 26.5477L51.7974 26.5629L51.6787 21.1042L52.3786 21.0889L52.3997 22.0587ZM57.7838 23.7021C57.7715 23.1356 57.8741 22.6399 58.0916 22.215C58.3089 21.7836 58.6151 21.4502 59.0101 21.2148C59.4049 20.9729 59.8589 20.8463 60.3721 20.8352C61.0453 20.8205 61.6021 20.9751 62.0426 21.299C62.4898 21.6226 62.7829 22.0697 62.922 22.6402L62.1722 22.6565C62.0703 22.2652 61.8603 21.9631 61.5423 21.7499C61.2308 21.53 60.8451 21.425 60.3852 21.435C60.0186 21.443 59.6905 21.5335 59.4008 21.7065C59.1112 21.8795 58.8834 22.1345 58.7173 22.4715C58.5578 22.8017 58.4832 23.2068 58.4937 23.6867C58.5041 24.1665 58.5963 24.5713 58.7701 24.9009C58.9507 25.2304 59.1894 25.4753 59.4863 25.6355C59.7832 25.7958 60.1149 25.8719 60.4815 25.864C60.9414 25.854 61.3222 25.7357 61.624 25.509C61.9324 25.2756 62.1288 24.9579 62.2134 24.556L62.9633 24.5397C62.8488 25.1023 62.5753 25.5584 62.1428 25.9079C61.7103 26.2573 61.1608 26.4393 60.4943 26.4538C59.9811 26.465 59.5221 26.3616 59.1172 26.1437C58.7122 25.9191 58.3919 25.5993 58.1561 25.1843C57.9203 24.7627 57.7962 24.2686 57.7838 23.7021ZM66.2192 25.5692L67.9549 20.7503L68.6947 20.7342L66.6239 26.2405L65.8341 26.2577L63.5259 20.8466L64.2758 20.8303L66.2192 25.5692Z" fill="white"/>
<path d="M46.0821 42.0796C45.9874 42.0817 45.896 42.0544 45.8279 42.0038C45.7598 41.9532 45.7206 41.8833 45.719 41.8097C45.7174 41.736 45.7535 41.6646 45.8194 41.611C45.8852 41.5575 45.9754 41.5263 46.0701 41.5242L51.0689 41.4155C51.1636 41.4135 51.255 41.4408 51.3231 41.4914C51.3912 41.542 51.4304 41.6118 51.432 41.6855C51.4336 41.7592 51.3975 41.8306 51.3317 41.8841C51.2658 41.9377 51.1757 41.9689 51.081 41.971L46.0821 42.0796ZM46.1123 43.4682C46.0176 43.4703 45.9262 43.443 45.8581 43.3924C45.79 43.3417 45.7508 43.2719 45.7492 43.1983C45.7476 43.1246 45.7837 43.0531 45.8495 42.9996C45.9154 42.9461 46.0056 42.9148 46.1003 42.9128L51.0991 42.8041C51.1938 42.802 51.2852 42.8293 51.3533 42.88C51.4214 42.9306 51.4606 43.0004 51.4622 43.0741C51.4638 43.1477 51.4277 43.2192 51.3619 43.2727C51.296 43.3262 51.2058 43.3575 51.1111 43.3595L46.1123 43.4682Z" fill="#F8F8F8"/>
<path fill-rule="evenodd" clip-rule="evenodd" d="M49.2889 35.6195L44.5151 35.7233C44.231 35.7295 43.9604 35.8232 43.7629 35.9838C43.5654 36.1444 43.4572 36.3588 43.462 36.5797L43.6431 44.9111C43.6479 45.132 43.7654 45.3415 43.9697 45.4934C44.1739 45.6453 44.4483 45.7271 44.7324 45.7209L52.5877 45.5502C52.8718 45.544 53.1423 45.4503 53.3398 45.2897C53.5373 45.1291 53.6456 44.9147 53.6408 44.6937L53.5164 38.974C53.5118 38.7654 53.4068 38.5666 53.2221 38.4169L50.0846 35.8723C49.9824 35.7893 49.8588 35.724 49.7218 35.6805C49.5849 35.637 49.4374 35.6162 49.2889 35.6195ZM44.1761 36.5642C44.1745 36.4905 44.2106 36.4191 44.2764 36.3655C44.3422 36.312 44.4324 36.2808 44.5271 36.2787L49.301 36.1749C49.3505 36.1738 49.3997 36.1807 49.4454 36.1952C49.4911 36.2097 49.5324 36.2315 49.5665 36.2592L52.7039 38.8038C52.7656 38.8537 52.8007 38.92 52.8023 38.9895L52.9266 44.7093C52.9282 44.7829 52.8922 44.8544 52.8263 44.9079C52.7605 44.9614 52.6703 44.9927 52.5756 44.9947L44.7203 45.1655C44.6256 45.1676 44.5342 45.1403 44.4661 45.0897C44.398 45.039 44.3588 44.9692 44.3572 44.8956L44.1761 36.5642Z" fill="#F8F8F8"/>
<path d="M49.5272 36.2256L49.5839 38.8361L52.9403 38.7631" stroke="#F8F8F8" stroke-linecap="round" stroke-linejoin="round"/>
<path d="M47.1721 38.5178C47.2742 38.518 47.3754 38.5023 47.4699 38.4716C47.5644 38.4408 47.6503 38.3957 47.7223 38.3388C47.7943 38.282 47.8511 38.2146 47.8893 38.1407C47.9275 38.0667 47.9463 37.9877 47.9445 37.9084C47.9428 37.829 47.9206 37.7509 47.8793 37.6787C47.8379 37.6065 47.7782 37.5416 47.7038 37.488C47.6294 37.4343 47.5417 37.393 47.4459 37.3664C47.3502 37.3398 47.2483 37.3285 47.1464 37.3331C46.9485 37.3421 46.7621 37.4107 46.6266 37.5242C46.4912 37.6378 46.4173 37.7875 46.4206 37.9415C46.424 38.0956 46.5043 38.2419 46.6446 38.3494C46.7849 38.457 46.9741 38.5174 47.1721 38.5178Z" fill="#F8F8F8"/>
<path fill-rule="evenodd" clip-rule="evenodd" d="M48.7225 39.7682C48.7088 39.1383 48.0169 38.6971 47.1757 38.7154C46.3345 38.7337 45.6624 39.204 45.6761 39.8344L45.6826 40.131C45.6839 40.1833 45.7118 40.2329 45.7603 40.2688C45.8088 40.3047 45.8738 40.3241 45.9411 40.3226L48.4798 40.2674C48.5469 40.2658 48.6109 40.2436 48.6575 40.2056C48.7042 40.1677 48.7299 40.117 48.729 40.0648L48.7225 39.7682Z" fill="#F8F8F8"/>
<defs>
<filter id="filter0_d_34_209" x="0.358944" y="0.355469" width="95.0289" height="68.5879" filterUnits="userSpaceOnUse" color-interpolation-filters="sRGB">
<feFlood flood-opacity="0" result="BackgroundImageFix"/>
<feColorMatrix in="SourceAlpha" type="matrix" values="0 0 0 0 0 0 0 0 0 0 0 0 0 0 0 0 0 0 127 0" result="hardAlpha"/>
<feOffset dy="3"/>
<feGaussianBlur stdDeviation="4"/>
<feColorMatrix type="matrix" values="0 0 0 0 0 0 0 0 0 0 0 0 0 0 0 0 0 0 0.24 0"/>
<feBlend mode="normal" in2="BackgroundImageFix" result="effect1_dropShadow_34_209"/>
<feBlend mode="normal" in="SourceGraphic" in2="effect1_dropShadow_34_209" result="shape"/>
</filter>
</defs>
</svg>
